<?xml version="1.0" encoding="UTF-8"?>
<svg version="1.1" xmlns="http://www.w3.org/2000/svg" width="740" height="740">
<path d="M0 0 C244.2 0 488.4 0 740 0 C740 244.2 740 488.4 740 740 C495.8 740 251.6 740 0 740 C0 495.8 0 251.6 0 0 Z " fill="#FEFEFE" transform="translate(0,0)"/>
<path d="M0 0 C1.66534134 1.3349883 3.33153951 2.66891204 5 4 C8.489039 1.14533173 11.81252208 -1.77332569 14.9609375 -5 C15.48204102 -5.53334961 16.00314453 -6.06669922 16.54003906 -6.61621094 C17.58269558 -7.69098873 18.61873232 -8.77223515 19.64746094 -9.86035156 C23.90980161 -14.25159932 26.87547701 -15.83138706 32.9375 -16.3125 C38.21669894 -16.15342809 41.66882353 -14.40313195 45.3125 -10.5625 C47.88063832 -6.6627344 48.14395446 -3.17259318 48.4296875 1.43359375 C48.53724365 3.09261719 48.53724365 3.09261719 48.64697266 4.78515625 C48.75984619 6.59306641 48.75984619 6.59306641 48.875 8.4375 C49.44368897 17.19553441 50.05973599 25.94576528 50.796875 34.69140625 C50.86524567 35.50701523 50.93361633 36.32262421 51.00405884 37.16294861 C51.27584584 40.39529402 51.54844675 43.62751644 51.83197021 46.8588562 C54.33596345 75.40520845 54.33596345 75.40520845 50 81 C45.67418414 85.09182582 42.99797502 86.34350364 37.0078125 86.3046875 C34.71200466 86.18867194 32.41750423 86.04416738 30.125 85.875 C28.92786377 85.80732422 27.73072754 85.73964844 26.49731445 85.66992188 C24.10283036 85.53192427 21.70896224 85.38272785 19.31591797 85.22167969 C16.43108418 85.02881935 13.54794189 84.86644749 10.66015625 84.7265625 C0.11862543 84.19871296 0.11862543 84.19871296 -3.76245117 83.50927734 C-7.2409741 82.96209396 -10.63936742 82.74043962 -14.15625 82.5703125 C-15.52216773 82.49669088 -16.88805238 82.42245339 -18.25390625 82.34765625 C-20.37983288 82.23421457 -22.50566631 82.1247366 -24.63232422 82.02587891 C-26.70363159 81.92779205 -28.77346706 81.81285248 -30.84375 81.6953125 C-32.68743164 81.6027417 -32.68743164 81.6027417 -34.56835938 81.50830078 C-39.56095398 80.76878869 -42.88614171 79.20417112 -46.3125 75.5 C-49.14397449 71.30522298 -49.33763378 67.98009828 -49 63 C-46.44130158 56.03354374 -40.75966499 51.66457044 -35.453125 46.74609375 C-34.38578125 45.72322266 -34.38578125 45.72322266 -33.296875 44.6796875 C-32.64041992 44.06851074 -31.98396484 43.45733398 -31.30761719 42.82763672 C-29.78610495 41.09674433 -29.78610495 41.09674433 -30.08398438 38.95458984 C-31.18389643 36.60760266 -32.29705148 35.60878961 -34.359375 34.046875 C-35.05627441 33.51408936 -35.75317383 32.98130371 -36.47119141 32.43237305 C-37.22319824 31.87718994 -37.97520508 31.32200684 -38.75 30.75 C-39.52134277 30.1722583 -40.29268555 29.5945166 -41.08740234 28.99926758 C-85.69141322 -4.01730664 -141.74959852 -17.27900299 -196.63208008 -9.86523438 C-212.23674606 -7.36150531 -227.41385828 -3.05399725 -242 3 C-242.98891235 3.4026709 -242.98891235 3.4026709 -243.99780273 3.81347656 C-270.40843271 14.64179992 -292.27570674 30.53172451 -313 50 C-313.63550781 50.58136719 -314.27101563 51.16273438 -314.92578125 51.76171875 C-320.49591334 57.03938567 -325.06243753 63.21456341 -329.70263672 69.30126953 C-330.82420401 70.76981774 -331.95966876 72.22773266 -333.09765625 73.68359375 C-348.70638436 94.22814143 -359.51907887 118.43455718 -366.1875 143.25 C-366.4254126 144.11689453 -366.6633252 144.98378906 -366.90844727 145.87695312 C-371.15553842 162.33573298 -372.56001787 178.80506065 -372.4375 195.75 C-372.43412628 196.66409637 -372.43075256 197.57819275 -372.42727661 198.51998901 C-372.3501025 213.01057309 -371.47742799 226.88059388 -368 241 C-367.64591064 242.50240234 -367.64591064 242.50240234 -367.28466797 244.03515625 C-363.50381244 259.77287596 -358.00649069 274.4250159 -351 289 C-350.65324219 289.72396973 -350.30648437 290.44793945 -349.94921875 291.19384766 C-340.45842214 310.68117556 -326.78505507 327.308416 -312 343 C-311.27167969 343.78246094 -310.54335938 344.56492187 -309.79296875 345.37109375 C-278.66222573 377.77247935 -227.79893691 402.22075502 -182.58203125 403.14526367 C-180.99222425 403.15845999 -179.40236025 403.16577188 -177.8125 403.16796875 C-176.95172852 403.17129715 -176.09095703 403.17462555 -175.20410156 403.17805481 C-173.38884002 403.1830915 -171.57356931 403.18546415 -169.75830078 403.18530273 C-167.0353185 403.18747187 -164.31275366 403.20561462 -161.58984375 403.22460938 C-147.68955664 403.27003981 -134.24860893 402.18006042 -120.625 399.25 C-119.83883301 399.08153564 -119.05266602 398.91307129 -118.24267578 398.73950195 C-109.60621547 396.80410034 -101.28843174 394.08428328 -93 391 C-92.29665527 390.73848145 -91.59331055 390.47696289 -90.86865234 390.20751953 C-40.73770809 371.23560019 1.41150212 332.44775096 23.59619141 283.50830078 C24.40726781 281.67651147 25.20374036 279.83827844 26 278 C26.51175781 276.84628906 27.02351563 275.69257813 27.55078125 274.50390625 C34.50129376 258.10644392 38.74270969 240.64283226 41 223 C41.14356934 221.97724976 41.14356934 221.97724976 41.29003906 220.93383789 C42.28307458 212.82024647 42.15069955 204.66494904 42.13037109 196.50463867 C42.12500498 193.93988148 42.13034548 191.3752988 42.13671875 188.81054688 C42.13605797 187.15364545 42.13477682 185.49674414 42.1328125 183.83984375 C42.13483673 183.08646225 42.13686096 182.33308075 42.13894653 181.55686951 C42.33765657 172.52223005 42.33765657 172.52223005 40 164 C39.68249447 161.96219175 39.39539849 159.91959211 39.125 157.875 C38.5537675 153.93695779 37.94534471 150.40919947 36.375 146.75 C34.80658786 142.47251235 33.82939076 138.48220116 35 134 C39.08127919 126.88584362 45.75480849 125.4817768 53.25 123.125 C54.43980469 122.7228125 55.62960937 122.320625 56.85546875 121.90625 C63.39385783 119.78217664 69.12824811 118.00862077 76 119 C80.90203613 122.35819164 82.24413127 126.62085841 83.5625 132.1875 C83.76520508 133.00049561 83.96791016 133.81349121 84.17675781 134.65112305 C87.912005 150.34763715 90.60429334 166.85846588 91 183 C91.02578125 183.87962402 91.0515625 184.75924805 91.078125 185.66552734 C92.66222439 246.54444687 74.5635695 308.90813994 35 356 C34.26007813 356.92296875 33.52015625 357.8459375 32.7578125 358.796875 C28.89595155 363.60794757 24.98614253 368.1765366 20.54296875 372.45703125 C18.77379158 374.17328503 18.77379158 374.17328503 16.5625 377 C14.03025661 379.96457763 11.4221102 382.39616538 8.45703125 384.91015625 C6.64077381 386.45498571 4.85016799 388.03008983 3.07421875 389.62109375 C-12.32857251 403.34091416 -29.23027545 414.24626316 -47.52392578 423.70849609 C-49.70052301 424.84379479 -51.8506783 426.01427915 -53.99609375 427.20703125 C-66.30076631 433.90074726 -79.67426611 437.84510898 -93 442 C-94.15072998 442.36399902 -94.15072998 442.36399902 -95.32470703 442.73535156 C-103.67671345 445.36056504 -112.12936654 447.21179849 -120.76269531 448.62792969 C-122.27960999 448.88019703 -123.79460153 449.14425902 -125.30761719 449.41894531 C-137.69984082 451.64964627 -149.87753153 452.27281385 -162.4375 452.25 C-163.50493439 452.24883682 -163.50493439 452.24883682 -164.59393311 452.24765015 C-179.42275188 452.20078175 -193.93696234 451.28426303 -208.5625 448.6875 C-210.35977539 448.38682617 -210.35977539 448.38682617 -212.19335938 448.08007812 C-220.65406525 446.60686627 -228.7795167 444.46607931 -237 442 C-238.33426815 441.63063463 -239.66983916 441.26586625 -241.0078125 440.91015625 C-248.63516198 438.83605244 -255.8220893 436.29670675 -263 433 C-264.23266602 432.43684082 -264.23266602 432.43684082 -265.49023438 431.86230469 C-278.42261859 425.91486409 -290.94577091 419.57955314 -303 412 C-304.59328125 411.00226563 -304.59328125 411.00226563 -306.21875 409.984375 C-318.77037039 401.85885232 -330.2448502 392.36943551 -341 382 C-341.69174316 381.33548828 -342.38348633 380.67097656 -343.09619141 379.98632812 C-352.86487144 370.55217752 -362.06584294 361.03825656 -370 350 C-370.59216309 349.18305664 -370.59216309 349.18305664 -371.19628906 348.34960938 C-379.37496279 337.00043744 -386.47981599 325.0986868 -393.25 312.875 C-394.01147339 311.51580444 -394.01147339 311.51580444 -394.78833008 310.12915039 C-398.18429522 303.92369897 -400.71437837 297.68486995 -403 291 C-403.51548447 289.62818648 -404.03585848 288.25819411 -404.5625 286.890625 C-406.19326914 282.55806806 -407.61117562 278.16523122 -409 273.75 C-409.39409058 272.49884399 -409.39409058 272.49884399 -409.79614258 271.22241211 C-411.47342958 265.8372735 -413.01400198 260.44541648 -414.29760742 254.95092773 C-414.98450218 252.06511024 -415.72856205 249.19861927 -416.4765625 246.328125 C-431.61955588 185.55610577 -416.4143033 116.83595006 -384.79174805 63.98046875 C-377.42803905 52.03186424 -369.16858697 40.62607029 -360 30 C-359.03126953 28.86498047 -359.03126953 28.86498047 -358.04296875 27.70703125 C-346.52176153 14.55567233 -334.1272337 2.31905822 -320 -8 C-318.84894983 -8.85806152 -317.69790823 -9.71613451 -316.546875 -10.57421875 C-297.62507764 -24.5262523 -276.39642179 -36.77534781 -254 -44 C-252.38989515 -44.65219437 -250.78532045 -45.31826328 -249.1875 -46 C-235.80271431 -51.37994628 -221.92412589 -54.24096907 -207.73486328 -56.54589844 C-205.17950492 -56.97019468 -202.63579891 -57.4371144 -200.08984375 -57.9140625 C-129.61973082 -70.3861483 -54.2881969 -44.48616135 0 0 Z " fill="#1F2C39" transform="translate(535,151)"/>
<path d="M0 0 C5.99099527 4.85756373 9.05381097 10.83931805 12.33203125 17.671875 C12.79429611 18.61951721 13.25656097 19.56715942 13.73283386 20.54351807 C14.70903764 22.54875119 15.68123372 24.55593974 16.6496582 26.56494141 C18.10212752 29.57755938 19.56644406 32.58416156 21.03320312 35.58984375 C25.76784175 45.32534111 30.40369603 55.08950961 34.70246887 65.02642822 C36.64628928 69.49762924 38.79234345 73.78003349 41.125 78.0625 C41.48489014 78.7232251 41.84478027 79.3839502 42.21557617 80.06469727 C42.50924072 80.60151123 42.80290527 81.1383252 43.10546875 81.69140625 C50.11039382 94.75236918 56.17723478 108.3877714 62.3125 121.875 C66.96093979 120.60981372 71.38115983 119.14281286 75.85546875 117.3359375 C76.4579393 117.09383545 77.06040985 116.8517334 77.68113708 116.60229492 C79.62209995 115.82147984 81.56106363 115.03583208 83.5 114.25 C84.8421525 113.70881804 86.18443872 113.16796756 87.52685547 112.62744141 C90.20222836 111.54990439 92.87694461 110.47076003 95.55126953 109.390625 C98.89350342 108.04206941 102.24048258 106.70577052 105.58984375 105.375 C106.50548096 105.01100098 107.42111816 104.64700195 108.36450195 104.27197266 C110.03320843 103.60917682 111.70229408 102.94733452 113.37182617 102.28662109 C114.10763916 101.99352051 114.84345215 101.70041992 115.6015625 101.3984375 C116.22756348 101.15013184 116.85356445 100.90182617 117.49853516 100.64599609 C119.37722409 99.87581675 119.37722409 99.87581675 121.36914062 98.80078125 C125.62676796 96.77252461 130.72849568 97.38407584 135.3125 97.875 C139.22521318 99.65974636 140.78664901 101.10375187 143.1875 104.625 C144.99858661 109.85702799 144.99858661 113.89297201 143.1875 119.125 C139.47811923 124.56542513 133.63346137 126.7736375 127.66796875 129.08203125 C126.93991531 129.37051437 126.21186188 129.6589975 125.46174622 129.95622253 C123.14370218 130.87324602 120.82206725 131.78071881 118.5 132.6875 C116.22814553 133.58160349 113.95709354 134.47772002 111.68617249 135.37419128 C110.1744617 135.97091682 108.66244773 136.56687484 107.15013123 137.1620636 C100.37864405 139.83253039 93.64723426 142.59621559 86.92285156 145.3828125 C82.40093853 147.25175573 77.86019306 149.06998781 73.3125 150.875 C71.54148658 151.58288295 69.77065422 152.29121906 68 153 C66.4375 153.625 64.875 154.25 63.3125 154.875 C62.46171875 155.2359375 61.6109375 155.596875 60.734375 155.96875 C57.38053472 157.22373539 54.86993482 157.24946682 51.3125 156.875 C42.67486266 152.55618133 39.11599364 143.84334708 35.25 135.5 C34.28425436 133.4477283 33.31809359 131.3956519 32.3515625 129.34375 C31.85430664 128.28285156 31.35705078 127.22195313 30.84472656 126.12890625 C28.30541239 120.7363028 25.71232132 115.3696875 23.125 110 C20.10832015 103.72682458 17.09779568 97.45159242 14.15405273 91.14379883 C13.79384033 90.37447021 13.43362793 89.6051416 13.0625 88.8125 C12.78818146 88.22596146 12.51386292 87.63942291 12.23123169 87.03511047 C10.11618961 82.53226024 7.92826115 78.07057226 5.6875 73.62890625 C0.89519333 64.08512434 -3.7706769 54.48058857 -8.4375 44.875 C-9.69751347 42.28279235 -10.95779163 39.69071418 -12.21856689 37.09887695 C-12.99374255 35.50519601 -13.76847598 33.91129984 -14.54266357 32.31713867 C-16.62144456 28.04209939 -18.73349589 23.78795087 -20.90371704 19.55847168 C-22.57529554 15.96812178 -22.56862582 12.68437854 -21.6875 8.875 C-19.61231419 4.85562017 -17.14575418 1.79600264 -13.3125 -0.625 C-8.59490534 -1.52358946 -4.49534396 -1.88177189 0 0 Z " fill="#D73C49" transform="translate(314.6875,205.125)"/>
<path d="M0 0 C4.93981216 0.00750693 9.87954373 0.00485012 14.81935287 -0.00360399 C139.56587458 -0.21168746 139.56587458 -0.21168746 175.56373763 9.25713819 C175.23373763 10.57713819 174.90373763 11.89713819 174.56373763 13.25713819 C164.00939968 16.99105071 152.94049552 17.47558947 141.87623763 18.38213819 C139.82162327 18.55627604 137.7670172 18.73051166 135.71241927 18.90484327 C124.29672627 19.85903502 112.88336013 20.80043172 101.42799544 21.08428663 C97.70958547 21.17754717 93.99124711 21.2720554 90.2730577 21.37370008 C62.61172083 22.1249367 34.96801919 22.41790556 7.29689193 22.38750929 C2.02706274 22.3817791 -3.24271636 22.38524166 -8.51254392 22.39093202 C-41.89298085 22.42182874 -75.15043227 22.06371816 -108.45310807 19.58257765 C-112.08807804 19.3130147 -115.72393054 19.05892287 -119.36009049 18.80596632 C-121.72018094 18.6356324 -124.08020985 18.46444315 -126.44016862 18.29229444 C-127.5036905 18.21825895 -128.56721238 18.14422346 -129.6629622 18.06794447 C-137.80849439 17.44776017 -145.82885185 16.37589677 -153.56126237 13.63213819 C-154.30634049 13.37174757 -155.05141862 13.11135694 -155.81907487 12.84307569 C-156.35274674 12.64971632 -156.88641862 12.45635694 -157.43626237 12.25713819 C-156.89866471 10.36040968 -156.89866471 10.36040968 -155.43626237 8.25713819 C-152.88173246 7.47120339 -150.65834158 6.981869 -148.03782487 6.60479444 C-147.2827263 6.48491667 -146.52762773 6.36503889 -145.74964738 6.24152845 C-137.65409443 5.02212004 -129.51730595 4.38667999 -121.35178971 3.85894483 C-118.88831459 3.69962149 -116.42602904 3.52759551 -113.96360612 3.35284132 C-109.271704 3.0265559 -104.57785597 2.74288809 -99.88276505 2.46667188 C-96.80865127 2.27977796 -93.73603909 2.07598635 -90.66324162 1.86880106 C-60.46547249 -0.1315677 -30.24804989 -0.05127746 0 0 Z " fill="#D2D9E0" transform="translate(360.4362623691559,626.7428618073463)"/>
<path d="M0 0 C1.093125 0.00257813 2.18625 0.00515625 3.3125 0.0078125 C4.405625 0.00523437 5.49875 0.00265625 6.625 0 C9.3125 0.1328125 9.3125 0.1328125 10.3125 1.1328125 C10.42582093 3.70300735 10.47667485 6.24532727 10.48046875 8.81640625 C10.48379715 9.58710953 10.48712555 10.35781281 10.49055481 11.15187073 C10.4956271 12.78524171 10.49796304 14.4186231 10.49780273 16.05200195 C10.4999878 18.55632549 10.51813595 21.06020771 10.53710938 23.56445312 C10.54004347 25.14843599 10.54202816 26.73242095 10.54296875 28.31640625 C10.55015427 29.0685289 10.55733978 29.82065155 10.56474304 30.5955658 C10.54132279 35.90398971 10.54132279 35.90398971 8.3125 38.1328125 C5.7109375 38.328125 5.7109375 38.328125 2.6875 38.2578125 C1.68460937 38.23976562 0.68171875 38.22171875 -0.3515625 38.203125 C-1.50785156 38.16832031 -1.50785156 38.16832031 -2.6875 38.1328125 C-4.24225264 35.02330721 -3.82949524 31.7283422 -3.8203125 28.31640625 C-3.82126923 27.54474625 -3.82222595 26.77308624 -3.82321167 25.9780426 C-3.82389246 24.34644489 -3.8220452 22.71484447 -3.81787109 21.08325195 C-3.81251413 18.57692429 -3.81782319 16.07077525 -3.82421875 13.56445312 C-3.82355809 11.98177044 -3.82227719 10.39908786 -3.8203125 8.81640625 C-3.82233673 8.06225937 -3.82436096 7.30811249 -3.82644653 6.53111267 C-3.79764263 0.1876742 -3.79764263 0.1876742 0 0 Z " fill="#1E2632" transform="translate(366.6875,157.8671875)"/>
<path d="M0 0 C1.3303125 0.00773437 1.3303125 0.00773437 2.6875 0.015625 C3.574375 0.01046875 4.46125 0.0053125 5.375 0 C7.6875 0.265625 7.6875 0.265625 9.6875 2.265625 C9.87487649 4.90678613 9.94319866 7.4411648 9.91796875 10.08203125 C9.91728142 11.23952126 9.91728142 11.23952126 9.9165802 12.4203949 C9.91355787 14.05200742 9.90567213 15.68361705 9.89331055 17.31518555 C9.87504787 19.821555 9.87280088 22.32755533 9.87304688 24.83398438 C9.86813198 26.41666988 9.86230379 27.99935287 9.85546875 29.58203125 C9.85435593 30.33617813 9.8532431 31.09032501 9.85209656 31.86732483 C9.80355119 37.14957381 9.80355119 37.14957381 8.6875 38.265625 C6.68950428 38.36436316 4.68792842 38.39534299 2.6875 38.390625 C1.594375 38.39320313 0.50125 38.39578125 -0.625 38.3984375 C-3.3125 38.265625 -3.3125 38.265625 -4.3125 37.265625 C-4.42582093 34.69543015 -4.47667485 32.15311023 -4.48046875 29.58203125 C-4.48546135 28.42597633 -4.48546135 28.42597633 -4.49055481 27.24656677 C-4.4956271 25.61319579 -4.49796304 23.9798144 -4.49780273 22.34643555 C-4.4999878 19.84211201 -4.51813595 17.33822979 -4.53710938 14.83398438 C-4.54004347 13.25000151 -4.54202816 11.66601655 -4.54296875 10.08203125 C-4.55015427 9.3299086 -4.55733978 8.57778595 -4.56474304 7.8028717 C-4.53261454 0.52063816 -4.53261454 0.52063816 0 0 Z " fill="#1C2631" transform="translate(367.3125,497.734375)"/>
<path d="M0 0 C0.75212265 0.00718552 1.5042453 0.01437103 2.27915955 0.02177429 C3.05081955 0.02223251 3.82247955 0.02269073 4.61752319 0.02316284 C6.24913571 0.02618517 7.88074535 0.03407091 9.51231384 0.0464325 C12.01868329 0.06469517 14.52468362 0.06694216 17.03111267 0.06669617 C18.61379818 0.07161106 20.19648117 0.07743925 21.77915955 0.08427429 C22.91037987 0.08594353 22.91037987 0.08594353 24.06445312 0.08764648 C29.3467021 0.13619185 29.3467021 0.13619185 30.4627533 1.25224304 C30.56149146 3.25023876 30.59247129 5.25181462 30.5877533 7.25224304 C30.59162048 8.89193054 30.59162048 8.89193054 30.5955658 10.56474304 C30.4627533 13.25224304 30.4627533 13.25224304 29.4627533 14.25224304 C26.89255845 14.36556397 24.35023852 14.41641789 21.77915955 14.42021179 C20.62310463 14.42520439 20.62310463 14.42520439 19.44369507 14.43029785 C17.81032408 14.43537014 16.1769427 14.43770608 14.54356384 14.43754578 C12.0392403 14.43973084 9.53535809 14.45787899 7.03111267 14.47685242 C5.44712981 14.47978652 3.86314485 14.4817712 2.27915955 14.48271179 C1.5270369 14.48989731 0.77491425 14.49708282 0 14.50448608 C-5.30842391 14.48106583 -5.30842391 14.48106583 -7.5372467 12.25224304 C-7.8028717 9.93974304 -7.8028717 9.93974304 -7.7872467 7.25224304 C-7.79240295 6.36536804 -7.7975592 5.47849304 -7.8028717 4.56474304 C-7.24023723 -0.33348649 -4.22230675 0.01862841 0 0 Z " fill="#212B39" transform="translate(528.5372467041016,339.7477569580078)"/>
<path d="M0 0 C0.77070328 -0.0033284 1.54140656 -0.0066568 2.33546448 -0.01008606 C3.96883546 -0.01515835 5.60221685 -0.01749429 7.2355957 -0.01733398 C9.73991924 -0.01951905 12.24380146 -0.0376672 14.74804688 -0.05664062 C16.33202974 -0.05957472 17.9160147 -0.06155941 19.5 -0.0625 C20.25212265 -0.06968552 21.0042453 -0.07687103 21.77915955 -0.08427429 C27.08758346 -0.06085404 27.08758346 -0.06085404 29.31640625 2.16796875 C29.58203125 4.48046875 29.58203125 4.48046875 29.56640625 7.16796875 C29.57414062 8.49828125 29.57414062 8.49828125 29.58203125 9.85546875 C29.31640625 12.16796875 29.31640625 12.16796875 27.31640625 14.16796875 C24.67524512 14.35534524 22.14086645 14.42366741 19.5 14.3984375 C18.72834 14.39797928 17.95667999 14.39752106 17.16163635 14.39704895 C15.53002383 14.39402662 13.8984142 14.38614088 12.2668457 14.3737793 C9.76047625 14.35551662 7.25447592 14.35326963 4.74804688 14.35351562 C3.16536137 14.34860073 1.58267838 14.34277254 0 14.3359375 C-1.13122032 14.33426826 -1.13122032 14.33426826 -2.28529358 14.33256531 C-7.56754256 14.28401994 -7.56754256 14.28401994 -8.68359375 13.16796875 C-8.78233191 11.16997303 -8.81331174 9.16839717 -8.80859375 7.16796875 C-8.81117188 6.07484375 -8.81375 4.98171875 -8.81640625 3.85546875 C-8.54961273 -1.54317652 -4.36298576 0.00643805 0 0 Z " fill="#1F2B39" transform="translate(189.68359375,339.83203125)"/>
<path d="M0 0 C4.96622349 -0.02465098 9.93241166 -0.04283649 14.89868164 -0.05493164 C16.58944316 -0.0599719 18.28020029 -0.06680405 19.97094727 -0.07543945 C22.39600707 -0.08751857 24.82100944 -0.09323123 27.24609375 -0.09765625 C28.38672523 -0.10539818 28.38672523 -0.10539818 29.55039978 -0.11329651 C31.3673257 -0.11349238 33.18413127 -0.06197277 35 0 C36 1 36 1 36.1328125 3.6875 C36.13023437 4.780625 36.12765625 5.87375 36.125 7 C36.12886719 8.6396875 36.12886719 8.6396875 36.1328125 10.3125 C36 13 36 13 35 14 C32.40640678 14.08851529 29.83960309 14.11525945 27.24609375 14.09765625 C26.47064713 14.0962413 25.6952005 14.09482635 24.89625549 14.09336853 C22.40996506 14.08775345 19.9237634 14.07519846 17.4375 14.0625 C15.75586067 14.05748694 14.07421994 14.0529237 12.39257812 14.04882812 C8.26168434 14.03777913 4.13085724 14.02050445 0 14 C0 13.67 0 13.34 0 13 C9.9 13 19.8 13 30 13 C29.67 9.37 29.34 5.74 29 2 C19.43 1.67 9.86 1.34 0 1 C0 0.67 0 0.34 0 0 Z " fill="#12161D" transform="translate(523,340)"/>
<path d="M0 0 C0.99 0.33 1.98 0.66 3 1 C2.88143732 6.87171171 2.75716812 12.74326502 2.62768555 18.61474609 C2.58446185 20.61080673 2.54277826 22.60690136 2.50268555 24.60302734 C2.44467761 27.47764309 2.38107209 30.35208975 2.31640625 33.2265625 C2.29969376 34.11429352 2.28298126 35.00202454 2.26576233 35.91665649 C2.15999975 40.37310342 1.88181054 44.61291411 1 49 C-1.58314292 45.12528562 -1.27002511 41.91195201 -1.23046875 37.421875 C-1.23001053 36.57707581 -1.22955231 35.73227661 -1.2290802 34.86187744 C-1.22605897 33.07310585 -1.21817653 31.28433687 -1.20581055 29.49560547 C-1.18766218 26.77431778 -1.18530024 24.0533729 -1.18554688 21.33203125 C-1.18062702 19.59114292 -1.17479667 17.85025689 -1.16796875 16.109375 C-1.16685593 15.30183777 -1.1657431 14.49430054 -1.16459656 13.66229248 C-1.12608131 9.01018604 -0.76665507 4.58998878 0 0 Z " fill="#373E43" transform="translate(115,320)"/>
<path d="M0 0 C1.47583955 0.0001591 2.95168467 0.00585225 4.42749023 0.01586914 C5.20293686 0.01728409 5.97838348 0.01869904 6.77732849 0.02015686 C9.26361893 0.02577194 11.74982059 0.03832693 14.23608398 0.05102539 C15.91772331 0.05603845 17.59936405 0.06060169 19.28100586 0.06469727 C23.41189965 0.07574626 27.54272674 0.09302094 31.67358398 0.11352539 C31.34358398 0.77352539 31.01358398 1.43352539 30.67358398 2.11352539 C19.78358398 2.11352539 8.89358398 2.11352539 -2.32641602 2.11352539 C-2.32641602 5.41352539 -2.32641602 8.71352539 -2.32641602 12.11352539 C8.89358398 12.44352539 20.11358398 12.77352539 31.67358398 13.11352539 C31.67358398 13.44352539 31.67358398 13.77352539 31.67358398 14.11352539 C26.70736049 14.13817637 21.74117232 14.15636188 16.77490234 14.16845703 C15.08414083 14.17349729 13.39338369 14.18032944 11.70263672 14.18896484 C9.27757692 14.20104396 6.85257454 14.20675662 4.42749023 14.21118164 C3.28685875 14.21892357 3.28685875 14.21892357 2.1231842 14.2268219 C0.30625828 14.22701777 -1.51054729 14.17549816 -3.32641602 14.11352539 C-4.32641602 13.11352539 -4.32641602 13.11352539 -4.45922852 10.42602539 C-4.45665039 9.33290039 -4.45407227 8.23977539 -4.45141602 7.11352539 C-4.45399414 6.02040039 -4.45657227 4.92727539 -4.45922852 3.80102539 C-4.26316223 -0.16643359 -4.06894793 0.13886685 0 0 Z " fill="#13171F" transform="translate(185.326416015625,339.886474609375)"/>
<path d="M0 0 C2.22248122 0.00536772 4.44476117 0.00002398 6.66723633 -0.00634766 C8.10408572 -0.00568689 9.540935 -0.00440577 10.9777832 -0.00244141 C12.26112549 -0.00131348 13.54446777 -0.00018555 14.86669922 0.00097656 C18.8692248 0.13745849 22.69773066 0.5766648 26.66137695 1.13037109 C22.7702 3.72448906 19.38871679 3.51845379 14.86450195 3.61474609 C13.99750671 3.63885559 13.13051147 3.66296509 12.23724365 3.68780518 C10.40152743 3.73610373 8.56567652 3.779495 6.72973633 3.81835938 C3.93549146 3.87984051 1.14248314 3.96301254 -1.65112305 4.04833984 C-3.43754919 4.09262676 -5.22400754 4.13563638 -7.01049805 4.17724609 C-7.83990906 4.20316833 -8.66932007 4.22909058 -9.52386475 4.25579834 C-14.54683959 4.34294189 -18.57869019 3.75738531 -23.33862305 2.13037109 C-23.33862305 1.80037109 -23.33862305 1.47037109 -23.33862305 1.13037109 C-15.55917782 0.02528643 -7.83931658 -0.02253923 0 0 Z " fill="#343A42" transform="translate(365.338623046875,90.86962890625)"/>
<path d="M0 0 C1.25159912 0.00523682 2.50319824 0.01047363 3.79272461 0.01586914 C4.78942421 0.01799156 4.78942421 0.01799156 5.80625916 0.02015686 C7.93590735 0.02577021 10.06545175 0.03832485 12.19506836 0.05102539 C13.63582205 0.05603868 15.07657739 0.06060188 16.51733398 0.06469727 C20.05577938 0.07574394 23.59416375 0.09301747 27.13256836 0.11352539 C27.13256836 0.44352539 27.13256836 0.77352539 27.13256836 1.11352539 C17.89256836 1.11352539 8.65256836 1.11352539 -0.86743164 1.11352539 C-0.86743164 4.41352539 -0.86743164 7.71352539 -0.86743164 11.11352539 C8.37256836 11.11352539 17.61256836 11.11352539 27.13256836 11.11352539 C27.13256836 11.44352539 27.13256836 11.77352539 27.13256836 12.11352539 C22.87842213 12.13818161 18.62431338 12.15636438 14.37011719 12.16845703 C12.92186763 12.1734964 11.47362319 12.18032792 10.02539062 12.18896484 C7.94782248 12.20104786 5.87032139 12.2067575 3.79272461 12.21118164 C2.54112549 12.21641846 1.28952637 12.22165527 0 12.22705078 C-2.86743164 12.11352539 -2.86743164 12.11352539 -3.86743164 11.11352539 C-3.96567101 9.44923488 -3.99716795 7.78070608 -3.99243164 6.11352539 C-3.99500977 5.20602539 -3.99758789 4.29852539 -4.00024414 3.36352539 C-3.79979097 -0.03238707 -3.45311428 0.13671334 0 0 Z " fill="#2E373C" transform="translate(524.867431640625,340.886474609375)"/>
<path d="M0 0 C0.99 0.33 1.98 0.66 3 1 C3.02688151 2.64574566 3.04634123 4.29161413 3.0625 5.9375 C3.07410156 6.85402344 3.08570313 7.77054687 3.09765625 8.71484375 C3 11 3 11 2 12 C-0.21855264 12.08783542 -2.43988496 12.10694609 -4.66015625 12.09765625 C-5.65685585 12.09553383 -5.65685585 12.09553383 -6.6736908 12.09336853 C-8.80333899 12.08775518 -10.93288339 12.07520054 -13.0625 12.0625 C-14.50325369 12.05748671 -15.94400903 12.05292351 -17.38476562 12.04882812 C-20.92321102 12.03778145 -24.46159539 12.02050792 -28 12 C-28 11.67 -28 11.34 -28 11 C-18.76 11 -9.52 11 0 11 C0 7.37 0 3.74 0 0 Z " fill="#2D343F" transform="translate(216,341)"/>
<path d="M0 0 C1.37478516 0.01740234 1.37478516 0.01740234 2.77734375 0.03515625 C3.69644531 0.04417969 4.61554688 0.05320312 5.5625 0.0625 C6.27277344 0.07410156 6.98304688 0.08570313 7.71484375 0.09765625 C8.04484375 0.75765625 8.37484375 1.41765625 8.71484375 2.09765625 C7.75771484 2.18853516 7.75771484 2.18853516 6.78125 2.28125 C5.54181641 2.40693359 5.54181641 2.40693359 4.27734375 2.53515625 C3.45363281 2.61636719 2.62992187 2.69757813 1.78125 2.78125 C-0.2717765 2.8869644 -0.2717765 2.8869644 -1.28515625 4.09765625 C-1.44340883 6.09547751 -1.53634796 8.09854459 -1.6015625 10.1015625 C-1.64345703 11.31650391 -1.68535156 12.53144531 -1.72851562 13.78320312 C-1.76783203 15.06259766 -1.80714844 16.34199219 -1.84765625 17.66015625 C-1.89083984 18.94341797 -1.93402344 20.22667969 -1.97851562 21.54882812 C-2.08500425 24.73165478 -2.18701587 27.91456299 -2.28515625 31.09765625 C-2.61515625 31.09765625 -2.94515625 31.09765625 -3.28515625 31.09765625 C-3.30981247 26.84351002 -3.32799524 22.58940127 -3.34008789 18.33520508 C-3.34512726 16.88695552 -3.35195878 15.43871108 -3.3605957 13.99047852 C-3.37267872 11.91291037 -3.37838836 9.83540928 -3.3828125 7.7578125 C-3.38804932 6.50621338 -3.39328613 5.25461426 -3.39868164 3.96508789 C-3.24719264 0.13876892 -3.24719264 0.13876892 0 0 Z " fill="#2E363C" transform="translate(367.28515625,497.90234375)"/>
<path d="M0 0 C0.99 0.33 1.98 0.66 3 1 C2.67 14.86 2.34 28.72 2 43 C1.67 43 1.34 43 1 43 C0.67 28.81 0.34 14.62 0 0 Z " fill="#28353E" transform="translate(115,320)"/>
<path d="M0 0 C5.94 0 11.88 0 18 0 C18 0.99 18 1.98 18 3 C11.8894576 3.11269443 6.04829486 2.89604368 0 2 C0 1.34 0 0.68 0 0 Z " fill="#2C3138" transform="translate(560,234)"/>
<path d="M0 0 C0 0.33 0 0.66 0 1 C-3.27075883 1.0580476 -6.54138524 1.09361165 -9.8125 1.125 C-10.74126953 1.14175781 -11.67003906 1.15851563 -12.62695312 1.17578125 C-13.51962891 1.18222656 -14.41230469 1.18867187 -15.33203125 1.1953125 C-16.15421143 1.20578613 -16.9763916 1.21625977 -17.82348633 1.22705078 C-20 1 -20 1 -23 -1 C-15.46650768 -3.51116411 -7.52197335 -1.54864157 0 0 Z " fill="#1B242D" transform="translate(415,95)"/>
<path d="M0 0 C2 2 2 2 2.13525391 5.16455078 C2.09292823 6.50851258 2.0392693 7.85214734 1.9765625 9.1953125 C1.95153656 9.90275604 1.92651062 10.61019958 1.90072632 11.33908081 C1.8184671 13.60153719 1.7219031 15.86312806 1.625 18.125 C1.56676631 19.65751658 1.5094629 21.19006881 1.453125 22.72265625 C1.31288005 26.4822698 1.15980243 30.241169 1 34 C0.67 34 0.34 34 0 34 C0 23.44 0 12.88 0 2 C-3.3 2 -6.6 2 -10 2 C-10 1.67 -10 1.34 -10 1 C-8.37675914 0.77837671 -6.751279 0.57310197 -5.125 0.375 C-4.22007812 0.25898438 -3.31515625 0.14296875 -2.3828125 0.0234375 C-1.59648437 0.01570312 -0.81015625 0.00796875 0 0 Z " fill="#2F353D" transform="translate(375,158)"/>
<path d="M0 0 C-1 2 -1 2 -2.84765625 2.6328125 C-3.57855469 2.79523438 -4.30945313 2.95765625 -5.0625 3.125 C-6.16271484 3.37636719 -6.16271484 3.37636719 -7.28515625 3.6328125 C-7.85105469 3.75398438 -8.41695313 3.87515625 -9 4 C-9 4.66 -9 5.32 -9 6 C-11.5 7.625 -11.5 7.625 -14 9 C-15.32 8.01 -16.64 7.02 -18 6 C-15.56495491 4.9936345 -13.12729136 3.99473587 -10.6875 3 C-9.65206055 2.57074219 -9.65206055 2.57074219 -8.59570312 2.1328125 C-5.58454326 0.91089256 -3.28113016 0 0 0 Z " fill="#CF4756" transform="translate(422,311)"/>
<path d="M0 0 C0 4.85089963 -2.40896448 7.38147446 -5.6875 10.8125 C-6.450625 11.534375 -7.21375 12.25625 -8 13 C-8.66 12.67 -9.32 12.34 -10 12 C-8.52278578 8.54798361 -6.56205999 6.35038064 -3.875 3.75 C-3.15054688 3.04359375 -2.42609375 2.3371875 -1.6796875 1.609375 C-1.12539062 1.07828125 -0.57109375 0.5471875 0 0 Z " fill="#1B2127" transform="translate(189,166)"/>
<path d="M0 0 C2.53078176 3.13334885 4.51376532 6.24530187 6 10 C5.1875 12.375 5.1875 12.375 4 14 C2 12 2 12 1.875 9.375 C1.91625 8.59125 1.9575 7.8075 2 7 C1.34 7 0.68 7 0 7 C-0.38133299 5.0085944 -0.71325582 3.00720923 -1 1 C-0.67 0.67 -0.34 0.34 0 0 Z " fill="#D94558" transform="translate(320,211)"/>
<path d="M0 0 C0.66 0 1.32 0 2 0 C3.09506492 3.28519475 3.09960608 5.73663415 3.0625 9.1875 C3.05347656 10.27417969 3.04445313 11.36085938 3.03515625 12.48046875 C3.02355469 13.31191406 3.01195312 14.14335937 3 15 C2.01 15.495 2.01 15.495 1 16 C0.67 10.72 0.34 5.44 0 0 Z " fill="#20262E" transform="translate(621,309)"/>
<path d="M0 0 C1.91750286 0.08743331 3.83406665 0.1956189 5.75 0.3125 C6.81734375 0.37050781 7.8846875 0.42851563 8.984375 0.48828125 C12.1821068 1.03090154 13.62598691 1.85071145 16 4 C13.70760939 3.91321237 11.4160193 3.80504727 9.125 3.6875 C7.84882813 3.62949219 6.57265625 3.57148437 5.2578125 3.51171875 C3.64519531 3.25841797 3.64519531 3.25841797 2 3 C1.34 2.01 0.68 1.02 0 0 Z " fill="#1E232A" transform="translate(320,596)"/>
<path d="M0 0 C0.99 0.33 1.98 0.66 3 1 C3 3.97 3 6.94 3 10 C2.01 9.67 1.02 9.34 0 9 C0 6.03 0 3.06 0 0 Z " fill="#D5495C" transform="translate(293,214)"/>
<path d="M0 0 C0.99 0.33 1.98 0.66 3 1 C2.67 6.61 2.34 12.22 2 18 C1.67 18 1.34 18 1 18 C0.67 12.06 0.34 6.12 0 0 Z " fill="#343B42" transform="translate(115,320)"/>
<path d="M0 0 C1.0625 1.8125 1.0625 1.8125 2 4 C1.67 4.99 1.34 5.98 1 7 C0.34 7 -0.32 7 -1 7 C-0.67 8.32 -0.34 9.64 0 11 C-0.66 11 -1.32 11 -2 11 C-2.33 11.66 -2.66 12.32 -3 13 C-2.69128878 11.20767663 -2.37790936 9.41615679 -2.0625 7.625 C-1.88847656 6.62726563 -1.71445312 5.62953125 -1.53515625 4.6015625 C-1 2 -1 2 0 0 Z " fill="#1A1F28" transform="translate(572,398)"/>
<path d="M0 0 C0.99 0.33 1.98 0.66 3 1 C3 3.64 3 6.28 3 9 C2.01 9.495 2.01 9.495 1 10 C0.67 6.7 0.34 3.4 0 0 Z " fill="#1A242D" transform="translate(115,369)"/>
<path d="M0 0 C0.66 0 1.32 0 2 0 C2 0.66 2 1.32 2 2 C2.66 2 3.32 2 4 2 C3.67 3.98 3.34 5.96 3 8 C0.37613513 4.93882432 0 4.26826873 0 0 Z " fill="#E33C53" transform="translate(312,258)"/>
<path d="M0 0 C0.33 0.66 0.66 1.32 1 2 C-0.98 4.31 -2.96 6.62 -5 9 C-5 4.61031544 -2.87194899 3.23094261 0 0 Z " fill="#D7DFDF" transform="translate(211,212)"/>
<path d="M0 0 C2.475 0.495 2.475 0.495 5 1 C5.33 1.99 5.66 2.98 6 4 C5.34 4 4.68 4 4 4 C4 3.34 4 2.68 4 2 C3.34 2 2.68 2 2 2 C2 2.66 2 3.32 2 4 C1.34 4 0.68 4 0 4 C0 2.68 0 1.36 0 0 Z " fill="#E13448" transform="translate(312,206)"/>
<path d="M0 0 C2.78211944 0.37596209 4.5879284 0.67318459 6.8125 2.4375 C8 4 8 4 8 6 C4.63408134 4.55746343 2.48952921 2.66735273 0 0 Z " fill="#25282D" transform="translate(572,136)"/>
</svg>
