<svg width="50" height="50" viewBox="0 0 50 50" fill="none" xmlns="http://www.w3.org/2000/svg">
<path d="M24.4645 5.63969C24.5407 5.63731 24.7192 5.7389 25.1192 6.09842L25.1391 10.9064C25.1502 13.5508 25.1859 15.7135 25.2184 15.7135C25.251 15.7127 26.6176 13.6008 28.2542 11.0198C29.8915 8.4389 31.3288 6.24286 31.4486 6.13969C31.5788 6.02858 31.7716 5.95159 31.9248 5.95001C32.0669 5.94842 32.2811 6.01985 32.401 6.10874C32.5208 6.19683 32.6399 6.36826 32.6645 6.4881C32.6891 6.60794 32.6597 6.83175 32.5986 6.98413C32.5383 7.13651 30.8391 9.86032 25.1589 18.8095V30.3968L24.7026 30.396C24.4518 30.3952 24.1113 30.3691 23.6478 30.2778L23.6494 25.8135C23.6502 23.3579 23.624 21.3508 23.5915 21.3524C23.5589 21.3548 22.9208 22.3278 22.1732 23.5151C21.1549 25.1333 20.7891 25.7841 20.7105 26.1111C20.6176 26.5016 20.5319 26.6214 19.9065 27.2421C19.5216 27.6238 19.1621 27.9373 19.1073 27.9381C19.0526 27.9389 18.847 27.8349 18.651 27.7064C18.4549 27.5778 18.2145 27.3889 17.9415 27.1032L18.178 26.746C18.3081 26.5492 18.4542 26.246 18.5018 26.0714C18.5581 25.8651 18.7288 25.6151 18.9907 25.3571C19.2621 25.0897 20.0875 23.8667 23.651 18.254L23.6486 12.2421C23.6454 6.27778 23.647 6.22858 23.8105 6.00556C23.901 5.88175 24.0542 5.75001 24.1502 5.71271C24.247 5.6754 24.3883 5.64286 24.4645 5.63969ZM33.0756 19.4445C33.2613 19.4445 33.5192 19.5071 33.6494 19.5833C33.7795 19.6595 33.9637 19.8651 34.0581 20.0397C34.1891 20.2818 34.2224 20.4548 34.1986 20.7667C34.1756 21.0627 34.1121 21.2349 33.9684 21.3921C33.8589 21.5103 33.6542 21.6564 33.5121 21.7167C33.37 21.7762 33.12 21.8254 32.9565 21.8254C32.793 21.8246 32.543 21.7532 32.401 21.6667C32.2589 21.5794 32.0669 21.3564 31.9748 21.1706C31.847 20.9151 31.8169 20.7468 31.851 20.4762C31.8756 20.2794 31.9597 20.0341 32.0391 19.931C32.1184 19.827 32.3073 19.6754 32.4605 19.5929C32.6137 19.5111 32.8899 19.4437 33.0756 19.4445ZM32.6391 20.0429C32.4645 20.1214 32.3669 20.2294 32.3375 20.377C32.3129 20.4968 32.3224 20.6992 32.3573 20.8262C32.3922 20.9532 32.5097 21.1246 32.6192 21.2064C32.728 21.2881 32.8978 21.3532 32.9962 21.3516C33.0946 21.3508 33.2819 21.2952 33.4129 21.2302C33.5542 21.1595 33.6669 21.0302 33.6907 20.9127C33.7121 20.804 33.7129 20.5984 33.6907 20.4564C33.6692 20.3143 33.6065 20.1587 33.5518 20.1095C33.497 20.0603 33.328 20 33.1748 19.9738C33.0049 19.9452 32.7962 19.9722 32.6391 20.0429ZM35.3772 22.2214C35.4319 22.2222 35.601 22.2762 35.7542 22.3413C35.9502 22.4254 36.078 22.5595 36.1891 22.7976C36.2756 22.9833 36.3462 23.2064 36.3462 23.2937C36.3462 23.381 36.2756 23.604 36.1891 23.7897C36.0581 24.0706 35.9692 24.1492 35.6549 24.2603C35.32 24.3794 35.2438 24.381 34.9676 24.2802C34.797 24.2175 34.5899 24.0778 34.5081 23.9683C34.4264 23.8595 34.3407 23.627 34.3184 23.4524C34.2907 23.2357 34.3232 23.0468 34.4208 22.8571C34.5129 22.6778 34.6907 22.5159 34.9208 22.4C35.1176 22.3016 35.3224 22.2214 35.3772 22.2214ZM34.974 22.9127C34.8867 23.004 34.8454 23.154 34.8589 23.3254C34.8732 23.5024 34.9502 23.6484 35.0795 23.7492C35.2653 23.8937 35.2938 23.8952 35.5359 23.777C35.678 23.7079 35.8192 23.5643 35.8502 23.4579C35.8851 23.3397 35.8613 23.1794 35.7899 23.0413C35.701 22.8698 35.6081 22.8119 35.3922 22.7937C35.201 22.7778 35.0669 22.8159 34.974 22.9127ZM39.0407 23.3349C39.197 23.3357 39.4859 23.4111 39.6827 23.5016C39.8795 23.5921 40.1288 23.7627 40.2383 23.881C40.3706 24.0243 40.5822 24.1273 40.8732 24.1897C41.1272 24.2437 41.3819 24.3579 41.4827 24.4627C41.578 24.5619 41.6946 24.7413 41.7407 24.8611C41.8216 25.0698 41.8145 25.0794 41.5875 25.0794C41.4359 25.0794 41.2843 25.0087 41.1708 24.8841C41.0256 24.7254 40.9145 24.6881 40.5756 24.6857C40.1819 24.6825 40.1494 24.6667 39.9803 24.3889C39.8819 24.2278 39.6946 24.0318 39.5637 23.9532C39.4327 23.8746 39.2272 23.8103 39.1073 23.8095C38.9875 23.8095 38.7645 23.8635 38.6113 23.9286C38.4581 23.9937 38.2637 24.1635 38.178 24.3056C38.0922 24.4476 38.0034 24.6794 37.9795 24.8214C37.9446 25.0325 37.9002 25.0794 37.7383 25.0794C37.5851 25.0794 37.5295 25.0294 37.4954 24.8611C37.4653 24.7111 37.5208 24.5071 37.674 24.2103C37.8581 23.8548 37.9724 23.7397 38.3264 23.5556C38.5676 23.431 38.8795 23.3341 39.0407 23.3349ZM31.8653 24.0508C32.0478 24.0492 32.2922 24.1151 32.4407 24.2064C32.5827 24.2937 32.7295 24.4278 32.7668 24.504C32.8049 24.5802 32.8581 24.7413 32.8859 24.8611C32.9327 25.0619 32.9176 25.0794 32.6986 25.0794C32.5184 25.0794 32.4415 25.031 32.3811 24.881C32.3375 24.7722 32.2303 24.6468 32.143 24.6032C32.0557 24.5595 31.8946 24.5238 31.7859 24.5238C31.6407 24.5238 31.5343 24.6087 31.3891 24.8413C31.2295 25.0968 31.1446 25.1587 30.9526 25.1587C30.7176 25.1587 30.7161 25.1548 30.8073 24.9008C30.8581 24.7587 30.9557 24.5611 31.024 24.4611C31.0922 24.3611 31.2383 24.2286 31.3478 24.1667C31.4581 24.1048 31.6907 24.0524 31.8653 24.0508ZM36.2303 25.9603C41.0835 25.954 44.0978 25.9786 44.2462 26.027C44.3772 26.0691 44.547 26.1952 44.6232 26.3064C44.6994 26.4175 44.7621 26.6325 44.7621 26.7857C44.7621 26.9992 44.7113 27.0984 44.5438 27.2151C44.424 27.2984 44.147 27.4111 43.9288 27.4659C43.7105 27.5206 43.5057 27.604 43.474 27.6516C43.4415 27.6992 43.4153 28.0413 43.4145 28.4127C43.4137 28.7841 43.3772 29.7302 43.3327 30.5159C43.2883 31.3016 43.1105 34.0333 42.9383 36.5873C42.7653 39.1413 42.5938 41.677 42.5565 42.2222C42.5081 42.9333 42.4462 43.3024 42.3359 43.527C42.2518 43.6984 42.093 43.9056 41.9843 43.9865C41.8232 44.1056 41.5526 44.1476 40.5557 44.2071C39.8795 44.2476 37.7724 44.2818 35.8732 44.2825C33.974 44.2833 32.1811 44.2579 31.3557 44.1667L31.3311 38.8492C31.3073 33.7302 31.3002 33.5143 31.1438 33.0556C31.0542 32.7937 30.8851 32.4278 30.7684 32.2421C30.651 32.0564 30.4042 31.7516 30.2184 31.5635C30.0327 31.3762 29.7454 31.1175 29.5795 30.9881C29.3621 30.8191 29.2589 30.6659 29.2097 30.4365C29.1724 30.2619 29.1113 29.5413 29.0081 27.5524L28.5716 27.4952C28.2661 27.4556 28.0811 27.3825 27.9565 27.2508C27.8295 27.1183 27.7772 26.9659 27.7756 26.7262C27.7748 26.4762 27.8208 26.3445 27.9542 26.2183C28.0542 26.1246 28.2065 26.0302 28.2938 26.0095C28.3811 25.9881 31.9526 25.9659 36.2303 25.9603ZM17.6827 27.4595C17.7129 27.4595 17.7915 27.5222 17.8573 27.5992C17.9224 27.6762 18.1986 27.8825 18.4708 28.0564C18.743 28.2302 18.9478 28.4 18.9272 28.4325C18.9065 28.4651 18.8264 28.4913 18.7502 28.4905C18.674 28.4889 18.4359 28.373 18.2216 28.2325C18.0073 28.0913 17.7668 27.896 17.6859 27.7976C17.6057 27.6992 17.5597 27.5833 17.5835 27.5397C17.6073 27.496 17.6518 27.4603 17.6827 27.4595ZM29.4462 27.6389C29.447 27.6937 29.5716 27.9881 29.724 28.2937C29.8756 28.5992 30.2081 29.1175 30.4629 29.4445C30.7168 29.7722 31.2256 30.2818 31.5938 30.5778C31.9613 30.8738 32.5835 31.273 32.9764 31.4659C33.3692 31.6579 33.9581 31.8913 34.2859 31.9857C34.6581 32.0921 35.2232 32.173 35.7938 32.2008C36.3732 32.2302 36.9383 32.2095 37.3415 32.1444C37.6907 32.0889 38.2264 31.9571 38.5319 31.8516C38.8375 31.746 39.3176 31.5452 39.5994 31.4056C39.8811 31.2651 40.3272 30.9992 40.5915 30.8143C40.8557 30.6302 41.3002 30.2548 41.5788 29.981C41.8581 29.7079 42.2383 29.2516 42.424 28.9683C42.6105 28.6849 42.8375 28.2651 42.9288 28.0357C43.0208 27.8064 43.0954 27.6008 43.0954 27.5794C43.0954 27.5579 42.8367 27.5484 42.5208 27.5595L41.9462 27.5794C41.3573 28.4405 40.9645 28.9167 40.6922 29.1937C40.4208 29.4706 40.0383 29.8159 39.8415 29.9611C39.6446 30.1064 39.2161 30.3516 38.8891 30.5071C38.5613 30.6619 38.0795 30.8452 37.8176 30.9143C37.5557 30.9825 37.0375 31.0611 36.6669 31.0873C36.2573 31.1167 35.743 31.0952 35.3573 31.0341C35.0081 30.9778 34.4724 30.846 34.1669 30.7413C33.8613 30.6357 33.4145 30.4389 33.1748 30.3032C32.9351 30.1683 32.5288 29.8921 32.2724 29.6913C32.0161 29.4897 31.6367 29.1111 31.4295 28.8492C31.2224 28.5873 30.9589 28.1857 30.8438 27.9564L30.6351 27.5397C29.6161 27.5397 29.4446 27.5683 29.4462 27.6389ZM17.2915 28.0191C17.3192 28.0214 17.5018 28.1587 17.6986 28.3254C17.8946 28.4921 18.1716 28.6873 18.5716 28.8889L18.2803 29.3056C18.1208 29.5349 17.951 29.7651 17.9034 29.8183C17.8367 29.8921 17.7462 29.8818 17.5002 29.7722C17.3256 29.6945 17.0486 29.5175 16.8851 29.3786C16.7216 29.2405 16.5788 29.0881 16.5676 29.0405C16.5573 28.9929 16.7042 28.7429 16.8954 28.4849C17.0859 28.227 17.2645 28.0175 17.2915 28.0191ZM15.9327 29.1349C16.0486 29.1302 16.2303 29.254 16.4486 29.4873C16.6343 29.6857 17.0272 29.9714 17.3216 30.1222C17.6708 30.3016 17.8851 30.4659 17.9367 30.5952C17.9803 30.7048 18.0161 31.0524 18.0161 31.3691C18.0161 31.7071 17.9367 32.2714 17.8232 32.7381C17.7169 33.1746 17.4851 33.9873 17.3073 34.5437C17.1295 35.1 16.9843 35.6095 16.9843 35.6746C16.9843 35.7397 16.9486 35.8119 16.9049 35.8333C16.8613 35.8548 16.4415 35.6794 15.9724 35.4429C15.5034 35.2064 14.8335 34.8262 14.4843 34.5992C14.1351 34.3714 13.6708 34.0405 13.4526 33.8619C13.2343 33.6841 12.8057 33.3198 12.5002 33.0516C12.1946 32.7841 11.793 32.3802 11.27 31.746L12.0835 31.1603C12.5311 30.8381 13.147 30.4135 13.4526 30.2159C13.7581 30.0191 14.2581 29.731 14.5637 29.5762C14.8692 29.4214 15.2621 29.2611 15.4367 29.2191C15.6113 29.177 15.8343 29.1397 15.9327 29.1349ZM24.4446 31.2008C26.0716 31.1952 27.4803 31.227 27.778 31.2746C28.0613 31.3198 28.4907 31.4468 28.7303 31.5556C28.97 31.6651 29.3042 31.8865 29.4716 32.0476C29.6391 32.2095 29.8581 32.5016 29.9597 32.6984C30.0605 32.8952 30.1986 33.2698 30.2668 33.5318C30.3351 33.7937 30.428 34.4008 30.4732 34.881C30.5295 35.477 30.5295 36.0183 30.4748 36.5873C30.4303 37.0452 30.3645 37.4476 30.328 37.481C30.2915 37.5135 27.5867 37.5318 18.3732 37.5L18.3764 35.5556C18.3795 33.754 18.393 33.5794 18.5518 33.1746C18.6462 32.9349 18.8256 32.5952 18.9494 32.4206C19.074 32.246 19.3526 31.9857 19.5684 31.8413C19.7843 31.6976 20.1565 31.523 20.397 31.4532C20.6367 31.3833 21.0121 31.3008 21.2303 31.2683C21.4486 31.2365 22.8954 31.2064 24.4446 31.2008ZM10.6208 32.1722L11.6002 33.131C12.1391 33.6579 12.9089 34.3206 13.3121 34.604C13.7153 34.8873 14.447 35.3619 14.9391 35.6587C15.4311 35.9556 16.0391 36.2683 16.7462 36.5079L16.6256 36.8452C16.5597 37.031 16.4883 37.227 16.4668 37.2818C16.4375 37.3587 16.3367 37.3524 16.0121 37.2532C15.7827 37.1825 15.3272 36.9897 15.0002 36.8246C14.6724 36.6595 14.0835 36.3119 13.6907 36.0524C13.2978 35.7921 12.6549 35.3294 12.2621 35.023C11.8692 34.7167 11.3494 34.2738 11.1073 34.0389C10.8653 33.8032 10.5145 33.4143 10.3295 33.1746C10.1438 32.9349 10.0026 32.7127 10.0161 32.6825C10.0288 32.6516 10.1708 32.5246 10.3303 32.3992L10.6208 32.1722ZM9.35415 33.1714C9.38193 33.1698 9.66844 33.4651 9.99066 33.8262C10.3129 34.1881 10.724 34.6206 10.9034 34.7881C11.0835 34.9548 11.4629 35.2802 11.7462 35.5103C12.0303 35.7405 12.6018 36.1556 13.0161 36.4325C13.4311 36.7103 14.1629 37.1397 14.643 37.3881C15.1232 37.6357 15.6692 37.8873 15.8573 37.9468C16.1795 38.05 16.1954 38.0683 16.1462 38.2937C16.1176 38.4246 15.7764 39.5048 14.6827 42.8571L14.4645 42.7389C14.3446 42.6738 14.0764 42.6198 13.8692 42.6198C13.5422 42.6191 13.4581 42.5825 13.2343 42.3444C13.0097 42.1056 12.9256 42.0691 12.5795 42.0635C12.2192 42.0571 12.1573 42.027 11.9049 41.7381C11.6756 41.4746 11.5597 41.4103 11.2375 41.3643C10.9565 41.3246 10.8129 41.2579 10.7216 41.1238C10.6526 41.0214 10.5327 40.8786 10.4557 40.8064C10.3788 40.7341 10.147 40.6373 9.93987 40.5913C9.69066 40.5357 9.53669 40.4516 9.48431 40.3421C9.44066 40.2508 9.31606 40.0833 9.20653 39.9698C9.0978 39.8564 8.86526 39.7294 8.69066 39.6873C8.4232 39.623 8.3486 39.5571 8.21447 39.2698C8.08431 38.9897 7.99145 38.9056 7.6986 38.8008C7.40098 38.6952 7.30812 38.6087 7.14304 38.2857C6.98669 37.981 6.86447 37.8603 6.56764 37.7191C6.27955 37.5825 6.18193 37.4881 6.15256 37.3214C6.13193 37.2016 6.0486 37.0143 5.96685 36.9048C5.8859 36.796 5.70494 36.6532 5.56606 36.5873C5.42637 36.5222 5.29542 36.4151 5.27479 36.3492C5.25415 36.2841 5.28272 36.1802 5.33748 36.1191C5.39225 36.0587 5.90098 35.6619 6.46844 35.2389C7.0359 34.8151 7.90574 34.177 8.40177 33.8214C8.89701 33.4659 9.32558 33.173 9.35415 33.1714ZM18.3407 38.404L19.0875 38.4524L19.1272 44.2857L18.3732 44.246L18.3407 38.404ZM20.0002 38.4127H20.7121L20.7502 40.496C20.7708 41.6421 20.7621 42.9365 20.6748 44.1667L20.0002 44.2064V38.4127ZM21.5859 38.4127H22.3018V44.2064L21.6272 44.1667L21.5859 38.4127ZM23.9692 38.4127V41.3095C23.9692 43.8143 23.9526 44.2119 23.8502 44.246C23.7843 44.2683 23.6057 44.2857 23.1756 44.2857L23.1589 43.5516C23.1502 43.1476 23.1549 41.8532 23.1692 40.6746C23.1835 39.496 23.2105 38.5048 23.2288 38.4722C23.247 38.4397 23.4216 38.4127 23.9692 38.4127ZM24.9732 38.4437C25.0319 38.4706 25.1875 38.4921 25.5565 38.4921V41.3492C25.5565 44.0064 25.5462 44.2087 25.4176 44.2365C25.3407 44.2524 25.1803 44.2524 24.8422 44.2064L24.8542 41.3008C24.8645 38.9016 24.8851 38.404 24.9732 38.4437ZM26.824 38.4127C27.0851 38.4127 27.1542 38.446 27.2034 38.5913C27.2359 38.6897 27.2534 40.0111 27.2232 44.2857L26.4692 44.246L26.4573 41.4294C26.451 39.8794 26.4589 38.5675 26.4756 38.5127C26.4922 38.454 26.6367 38.4127 26.824 38.4127ZM28.0962 38.4127H28.8097L28.8478 40.5357C28.8684 41.7032 28.8597 42.9984 28.7708 44.1667L28.0962 44.2064V38.4127ZM29.6835 38.4127H30.4772L30.4756 41.131C30.4756 42.6262 30.4573 43.9294 30.4359 44.0278C30.4042 44.177 30.3446 44.2064 30.0803 44.2064C29.8687 44.2064 29.7497 44.1667 29.7232 44.0873C29.701 44.0222 29.6835 42.7183 29.6835 41.1905V38.4127Z" fill="black"/>
</svg>
